<?xml version="1.0" standalone="no"?>
<!DOCTYPE svg PUBLIC "-//W3C//DTD SVG 20010904//EN"
 "http://www.w3.org/TR/2001/REC-SVG-20010904/DTD/svg10.dtd">
<svg version="1.0" xmlns="http://www.w3.org/2000/svg"
 width="260.000000pt" height="260.000000pt" viewBox="0 0 260.000000 260.000000"
 preserveAspectRatio="xMidYMid meet">
<metadata>
Created by potrace 1.14, written by Peter Selinger 2001-2017
</metadata>
<g transform="translate(0.000000,260.000000) scale(0.100000,-0.100000)"
fill="#000000" stroke="none">
<path d="M1127 2194 c-172 -31 -331 -118 -467 -254 -303 -303 -356 -737 -136
-1115 55 -95 210 -249 301 -301 212 -121 414 -158 640 -119 180 32 338 117
481 259 93 94 105 110 162 226 72 146 91 215 99 365 13 252 -73 484 -246 668
-216 227 -524 327 -834 271z m173 -210 c0 -173 1 -186 18 -179 135 55 203 57
297 10 116 -59 147 -151 110 -329 -8 -40 -27 -106 -42 -147 -26 -72 -27 -81
-27 -294 l-1 -220 -34 -65 c-57 -111 -129 -178 -177 -166 -40 10 -46 36 -34
147 12 121 1 209 -36 284 -27 53 -52 85 -66 85 -4 0 -8 -154 -8 -341 l0 -341
-67 6 c-377 38 -682 295 -773 650 -40 157 -36 307 12 471 77 264 304 494 564
571 73 22 177 41 227 43 l37 1 0 -186z"/>
<path d="M1027 1833 c-71 -24 -133 -83 -152 -146 -26 -88 -17 -159 46 -357
l30 -95 -7 -175 c-6 -151 -4 -184 10 -235 30 -102 137 -235 190 -235 46 0 51
21 51 199 0 184 9 219 74 293 l31 36 -2 343 -3 343 -65 23 c-76 26 -136 28
-203 6z"/>
<path d="M1479 1761 c-23 -19 -23 -20 -6 -52 9 -19 40 -65 67 -104 28 -38 58
-94 67 -122 19 -59 29 -65 43 -27 28 72 -7 228 -64 289 -38 40 -71 45 -107 16z"/>
</g>
</svg>
